<?xml version="1.0" encoding="UTF-8" standalone="no"?>
<svg
   width="228px"
   height="256px"
   viewBox="0 0 228 256"
   version="1.1"
   id="svg853"
   sodipodi:docname="cpp.svg"
   inkscape:version="1.1.1 (eb90963e84, 2021-10-02)"
   xmlns:inkscape="http://www.inkscape.org/namespaces/inkscape"
   xmlns:sodipodi="http://sodipodi.sourceforge.net/DTD/sodipodi-0.dtd"
   xmlns="http://www.w3.org/2000/svg"
   xmlns:svg="http://www.w3.org/2000/svg">
  <defs
     id="defs857" />
  <sodipodi:namedview
     id="namedview855"
     pagecolor="#ffffff"
     bordercolor="#666666"
     borderopacity="1.0"
     inkscape:pageshadow="2"
     inkscape:pageopacity="0.0"
     inkscape:pagecheckerboard="0"
     showgrid="false"
     inkscape:zoom="3.296875"
     inkscape:cx="47.469194"
     inkscape:cy="128.15166"
     inkscape:window-width="1865"
     inkscape:window-height="1016"
     inkscape:window-x="55"
     inkscape:window-y="27"
     inkscape:window-maximized="1"
     inkscape:current-layer="c++" />
  <!-- Generator: Sketch 52 (66869) - http://www.bohemiancoding.com/sketch -->
  <title
     id="title834">c++</title>
  <desc
     id="desc836">Created with Sketch.</desc>
  <g
     id="Page-1"
     stroke="none"
     stroke-width="1"
     fill="none"
     fill-rule="evenodd">
    <g
       id="c++">
      <path
         d="M227.616141,75.3066667 C227.614359,71.0133333 226.694344,67.2195556 224.833828,63.9635556 C223.006266,60.7617778 220.269375,58.0782222 216.598219,55.9564444 C186.294703,38.5173333 155.961797,21.1315556 125.668078,3.67466667 C117.501047,-1.03111111 109.5825,-0.859555556 101.476031,3.91377778 C89.4142969,11.0133333 29.0254687,45.544 11.0303906,55.9466667 C3.6195,60.2284444 0.013359375,66.7813333 0.011578125,75.2986667 C0,110.369778 0.011578125,145.44 0,180.512 C0.00178125,184.711111 0.882609375,188.431111 2.6611875,191.638222 C4.48964062,194.936889 7.26482812,197.694222 11.0205937,199.864 C29.0165625,210.266667 89.4134062,244.794667 101.472469,251.896 C109.5825,256.672 117.501047,256.842667 125.67075,252.135111 C155.965359,234.677333 186.300047,217.292444 216.608016,199.853333 C220.363781,197.684444 223.138969,194.925333 224.967422,191.629333 C226.743328,188.422222 227.625937,184.702222 227.627719,180.502222 C227.627719,180.502222 227.627719,110.378667 227.616141,75.3066667"
         id="Path"
         fill="#000"
         fill-opacity="0.2" />
      <path
         d="M114.162094,127.563556 L2.6611875,191.638222 C4.48964062,194.936889 7.26482812,197.694222 11.0205937,199.864 C29.0165625,210.266667 89.4134062,244.794667 101.472469,251.896 C109.5825,256.672 117.501047,256.842667 125.67075,252.135111 C155.965359,234.677333 186.300047,217.292444 216.608016,199.853333 C220.363781,197.684444 223.138969,194.925333 224.967422,191.629333 L114.162094,127.563556"
         id="path839"
         fill="#000"
         fill-opacity="0.4" />
      <path
         d="M227.616141,75.3066667 C227.614359,71.0133333 226.694344,67.2195556 224.833828,63.9635556 L114.162094,127.563556 L224.967422,191.629333 C226.743328,188.422222 227.625938,184.702222 227.627719,180.502222 C227.627719,180.502222 227.627719,110.378667 227.616141,75.3066667"
         id="path843"
         fill="#000"
         fill-opacity="0.3" />
      <polyline
         id="polyline845"
         fill="#FFFFFF"
         points="221.523375 132.143111 212.864719 132.143111 212.864719 140.786667 204.204281 140.786667 204.204281 132.143111 195.546516 132.143111 195.546516 123.502222 204.204281 123.502222 204.204281 114.860444 212.864719 114.860444 212.864719 123.502222 221.523375 123.502222 221.523375 132.143111" />
      <polyline
         id="polyline847"
         fill="#FFFFFF"
         points="189.928453 132.143111 181.270688 132.143111 181.270688 140.786667 172.612031 140.786667 172.612031 132.143111 163.953375 132.143111 163.953375 123.502222 172.612031 123.502222 172.612031 114.860444 181.270688 114.860444 181.270688 123.502222 189.928453 123.502222 189.928453 132.143111" />
      <path
         d="M146.613797,146.325333 C140.158547,157.751111 127.891969,165.472889 113.813859,165.472889 C99.8221406,165.472889 87.6250312,157.848 81.1368281,146.543111 C77.9849062,141.049778 76.1724844,134.689778 76.1724844,127.904889 C76.1724844,107.157333 93.0257812,90.3377778 113.813859,90.3377778 C127.715625,90.3377778 139.848609,97.8675556 146.368875,109.056889 L179.269453,90.1484444 C166.192406,67.6186667 141.777703,52.4613333 113.813859,52.4613333 C72.0649219,52.4613333 38.2220625,86.2391111 38.2220625,127.904889 C38.2220625,141.574222 41.8656094,154.392889 48.2335781,165.449778 C61.2776719,188.098667 85.7618437,203.349333 113.813859,203.349333 C141.917531,203.349333 166.44,188.037333 179.465391,165.321778 L146.613797,146.325333"
         id="path849"
         fill="#FFFFFF" />
    </g>
  </g>
</svg>
