<?xml version="1.0" encoding="UTF-8" standalone="no"?>
<svg
   width="255px"
   height="96px"
   viewBox="0 0 255 96"
   version="1.1"
   id="svg11"
   sodipodi:docname="go.svg"
   inkscape:version="1.1.1 (eb90963e84, 2021-10-02)"
   xmlns:inkscape="http://www.inkscape.org/namespaces/inkscape"
   xmlns:sodipodi="http://sodipodi.sourceforge.net/DTD/sodipodi-0.dtd"
   xmlns="http://www.w3.org/2000/svg"
   xmlns:svg="http://www.w3.org/2000/svg">
  <defs
     id="defs15" />
  <sodipodi:namedview
     id="namedview13"
     pagecolor="#ffffff"
     bordercolor="#666666"
     borderopacity="1.0"
     inkscape:pageshadow="2"
     inkscape:pageopacity="0.0"
     inkscape:pagecheckerboard="0"
     showgrid="false"
     inkscape:zoom="5.0470588"
     inkscape:cx="116.60256"
     inkscape:cy="48.047786"
     inkscape:window-width="1865"
     inkscape:window-height="1016"
     inkscape:window-x="55"
     inkscape:window-y="27"
     inkscape:window-maximized="1"
     inkscape:current-layer="Page-1" />
  <g
     id="Page-1"
     stroke="none"
     stroke-width="1"
     fill="none"
     fill-rule="evenodd">
    <g
       transform="translate(0.000000, -1.000000)"
       fill="#000"
       fill-rule="nonzero"
       fill-opacity="0.4"
       id="g1844">
      <path
         d="M 200.59517,96.502564 C 189.34106,96.253846 179.07633,93.020513 170.41932,85.558974 163.1227,79.216667 158.54686,71.133333 157.0628,61.557692 c -2.22609,-14.052564 1.60773,-26.488461 10.01739,-37.55641 9.02802,-11.938461 19.91111,-18.1564102 34.62802,-20.7679487 12.6145,-2.23846151 24.48696,-0.9948718 35.24638,6.3423077 9.77005,6.715385 15.82995,15.79359 17.43768,27.732051 2.10242,16.788462 -2.72077,30.467949 -14.22222,42.157693 -8.16232,8.332051 -18.17971,13.555128 -29.68116,15.917948 -3.33913,0.621795 -6.67826,0.746154 -9.89372,1.119231 z m 29.43382,-50.241026 c -0.12368,-1.616666 -0.12368,-2.860256 -0.37102,-4.103846 -2.22609,-12.311538 -13.48019,-19.275641 -25.22898,-16.539743 -11.50145,2.611538 -18.92174,9.948718 -21.64252,21.638461 -2.22608,9.7 2.47343,19.524359 11.37778,23.503846 6.80193,2.984616 13.60387,2.611539 20.15846,-0.746153 9.77004,-5.098718 15.08792,-13.057693 15.70628,-23.752565 z M 20.034783,29.970513 c -0.494686,0 -0.618358,-0.248718 -0.371015,-0.621795 l 2.597102,-3.357692 c 0.247343,-0.373077 0.8657,-0.621795 1.360386,-0.621795 h 44.150725 c 0.494686,0 0.618357,0.373077 0.371014,0.746154 l -2.102415,3.233333 c -0.247343,0.373077 -0.865701,0.746154 -1.236715,0.746154 z M 1.3603865,41.411538 c -0.49468602,0 -0.61835751,-0.248717 -0.37101452,-0.621794 L 3.5864734,37.432051 c 0.247343,-0.373077 0.8657005,-0.621795 1.3603865,-0.621795 H 61.341063 c 0.494686,0 0.742029,0.373077 0.618357,0.746154 l -0.989372,2.984616 c -0.123671,0.497435 -0.618357,0.746153 -1.113043,0.746153 z M 31.288889,52.852564 c -0.494686,0 -0.618358,-0.373077 -0.371015,-0.746154 l 1.731401,-3.108974 c 0.247343,-0.373077 0.742029,-0.746154 1.236715,-0.746154 h 24.7343 c 0.494686,0 0.742029,0.373077 0.742029,0.870513 l -0.247343,2.984615 c 0,0.497436 -0.494686,0.870513 -0.865701,0.870513 z M 159.6599,27.732051 c -7.7913,1.989744 -13.10918,3.482052 -20.77681,5.471795 -1.85507,0.497436 -1.97874,0.621795 -3.58647,-1.24359 -1.85507,-2.114102 -3.21546,-3.482051 -5.81256,-4.725641 -7.79131,-3.855128 -15.33527,-2.735897 -22.38454,1.865385 -8.409665,5.471795 -12.738167,13.555128 -12.614496,23.628205 0.123672,9.948718 6.925606,18.15641 16.695656,19.524359 8.40966,1.119231 15.45893,-1.865384 21.02415,-8.207692 1.11304,-1.367949 2.10242,-2.860257 3.33913,-4.601282 h -23.8686 c -2.5971,0 -3.21546,-1.616667 -2.34976,-3.73077 1.60773,-3.855128 4.57585,-10.321794 6.30725,-13.555128 0.37102,-0.746154 1.23671,-1.989743 3.09179,-1.989743 h 45.01642 c -0.24734,3.357692 -0.24734,6.715384 -0.74203,10.073077 -1.36038,8.953846 -4.69951,17.161538 -10.14106,24.374359 C 143.95362,86.429487 132.3285,93.766667 117.61159,95.75641 105.49179,97.373077 94.237681,95.010256 84.343961,87.548718 75.192271,80.584615 69.998068,71.382051 68.637681,59.941026 67.029952,46.385897 70.98744,34.198718 79.149759,23.503846 87.930435,11.938462 99.555556,4.601282 113.77778,1.9897436 c 11.62512,-2.11410257 22.75555,-0.7461539 32.77294,6.0935897 6.55459,4.3525637 11.25411,10.3217947 14.3459,17.5346157 0.74203,1.11923 0.24734,1.741025 -1.23672,2.114102 z"
         id="path1842" />
    </g>
  </g>
</svg>
