<?xml version="1.0" encoding="UTF-8" standalone="no"?>
<svg
   width="256px"
   height="256px"
   viewBox="0 0 256 256"
   version="1.1"
   id="svg1184"
   sodipodi:docname="lua.svg"
   inkscape:version="1.1.1 (eb90963e84, 2021-10-02)"
   xmlns:inkscape="http://www.inkscape.org/namespaces/inkscape"
   xmlns:sodipodi="http://sodipodi.sourceforge.net/DTD/sodipodi-0.dtd"
   xmlns="http://www.w3.org/2000/svg"
   xmlns:svg="http://www.w3.org/2000/svg">
  <defs
     id="defs1188" />
  <sodipodi:namedview
     id="namedview1186"
     pagecolor="#ffffff"
     bordercolor="#666666"
     borderopacity="1.0"
     inkscape:pageshadow="2"
     inkscape:pageopacity="0.0"
     inkscape:pagecheckerboard="0"
     showgrid="false"
     inkscape:zoom="3.296875"
     inkscape:cx="129.97156"
     inkscape:cy="128.15166"
     inkscape:window-width="1865"
     inkscape:window-height="1016"
     inkscape:window-x="55"
     inkscape:window-y="27"
     inkscape:window-maximized="1"
     inkscape:current-layer="lua" />
  <!-- Generator: Sketch 52 (66869) - http://www.bohemiancoding.com/sketch -->
  <title
     id="title1166">lua</title>
  <desc
     id="desc1168">Created with Sketch.</desc>
  <g
     id="Page-1"
     stroke="none"
     stroke-width="1"
     fill="none"
     fill-rule="evenodd">
    <g
       id="lua">
      <path
         id="Path"
         d="M 127.98047 30.154297 C 73.956897 30.154297 30.111328 73.999592 30.111328 128.02344 C 30.111328 182.04701 73.956897 225.89258 127.98047 225.89258 C 182.00404 225.89258 225.84961 182.04701 225.84961 128.02344 C 225.84961 73.999592 182.00404 30.154297 127.98047 30.154297 z M 168.5293 58.808594 C 184.35237 58.808594 197.19531 71.651539 197.19531 87.474609 C 197.19531 103.29768 184.35237 116.14065 168.5293 116.14062 C 152.70623 116.14062 139.86523 103.29768 139.86523 87.474609 C 139.86523 71.651539 152.70623 58.808594 168.5293 58.808594 z M 61.25 113.75586 L 69.808594 113.75586 L 69.808594 169.41016 L 101.50586 169.41016 L 101.50586 176.93555 L 61.25 176.93555 L 61.25 113.75586 z M 176.27734 129.75586 C 181.68957 129.75586 186.08521 130.78734 189.46484 132.85156 C 192.81555 134.91605 194.49023 138.12757 194.49023 142.48633 L 194.49023 169.02539 C 194.49023 169.82826 194.65626 170.4724 194.98633 170.95898 C 195.31559 171.44557 196.01123 171.68945 197.07227 171.68945 C 197.41639 171.68945 197.80233 171.66798 198.23242 171.625 C 198.66251 171.58202 199.12142 171.5176 199.60938 171.43164 L 199.60938 177.15039 C 198.40507 177.49452 197.48783 177.71117 196.85742 177.79688 C 196.22648 177.88284 195.36454 177.92578 194.27539 177.92578 C 191.60888 177.92578 189.67501 176.97991 188.4707 175.08789 C 187.83976 174.08498 187.39488 172.66452 187.13672 170.83008 C 185.55963 172.8943 183.29458 174.68557 180.3418 176.20508 C 177.3882 177.72378 174.13293 178.48437 170.57812 178.48438 C 166.30533 178.48438 162.81496 177.18901 160.10547 174.59766 C 157.39571 172.0063 156.04102 168.76206 156.04102 164.86719 C 156.04102 160.60061 157.37451 157.29338 160.04102 154.94531 C 162.70752 152.59725 166.20532 151.14991 170.53516 150.60547 L 182.87891 149.06055 C 184.65631 148.83239 185.8472 148.08731 186.44922 146.82812 C 186.79253 146.13717 186.96484 145.14334 186.96484 143.84766 C 186.96484 141.20007 186.02652 139.27883 184.15234 138.08398 C 182.27789 136.88968 179.59566 136.29297 176.10547 136.29297 C 172.07056 136.29297 169.20773 137.38848 167.51953 139.57812 C 166.57528 140.78919 165.96206 142.58942 165.67578 144.98047 L 158.44922 144.98047 C 158.59222 139.2871 160.43401 135.32651 163.9707 133.09766 C 167.5074 130.86935 171.60933 129.75586 176.27734 129.75586 z M 109.0332 130.87305 L 116.94531 130.87305 L 116.94531 161.45312 C 116.94531 163.80443 117.30879 165.72648 118.03516 167.2168 C 119.37517 169.96927 121.87459 171.3457 125.5332 171.3457 C 130.78215 171.3457 134.35681 168.9361 136.25586 164.11914 C 137.28878 161.5386 137.80469 157.99813 137.80469 153.49609 L 137.80469 130.87305 L 145.54688 130.87305 L 145.54688 176.93555 L 138.23633 176.93555 L 138.32227 170.14062 C 137.33638 171.88964 136.11145 173.366 134.64844 174.57031 C 131.75053 176.97893 128.23312 178.18359 124.09766 178.18359 C 117.6544 178.18359 113.26646 175.99039 110.93164 171.60352 C 109.6657 169.25302 109.0332 166.11226 109.0332 162.18359 L 109.0332 130.87305 z M 186.75 153.52539 C 185.80521 154.12957 184.58944 154.63237 183.10156 155.03516 C 181.61368 155.43821 180.15323 155.72537 178.72266 155.89648 L 174.04492 156.49805 C 171.24082 156.87029 169.13202 157.45852 167.71875 158.25977 C 165.32419 159.6041 164.12695 161.74928 164.12695 164.69531 C 164.12695 166.92659 164.94374 168.68509 166.57812 169.97266 C 168.21252 171.26023 170.14808 171.9043 172.38477 171.9043 C 175.10831 171.9043 177.7464 171.27481 180.29883 170.01562 C 184.59947 167.92545 186.75 164.50431 186.75 159.75195 L 186.75 153.52539 z "
         fill="black"
         fill-opacity="0.4" />
      <path
         d="M254.515092,30.1544752 C254.515092,14.3314044 241.672921,1.48923337 225.84985,1.48923337 C210.026779,1.48923337 197.184608,14.3314044 197.184608,30.1544752 C197.184608,45.9775459 210.026779,58.819717 225.84985,58.819717 C241.672921,58.819717 254.515092,45.9775459 254.515092,30.1544752"
         id="path1173"
         fill="#000"
         fill-opacity="0.4" />
      <path
         d="M132.532038,255.92566 L132.429584,252.990986 C136.058458,252.864473 139.716798,252.578467 143.302691,252.140266 L143.658712,255.054665 C139.989018,255.502868 136.245254,255.795903 132.532038,255.92566 Z M121.370492,255.8351 C117.663223,255.645331 113.924596,255.291202 110.258686,254.782175 L110.662285,251.873994 C114.244393,252.371126 117.897597,252.717145 121.520253,252.902589 L121.370492,255.8351 Z M154.669685,253.218061 L154.060367,250.345833 C157.60517,249.593782 161.157271,248.67521 164.618543,247.615797 L165.478184,250.423147 C161.934733,251.50797 158.298289,252.447899 154.669685,253.218061 Z M99.2796114,252.764182 C95.6674974,251.935088 92.0470032,250.934876 88.5189609,249.790851 L89.4242872,246.997829 C92.8709609,248.115362 96.407924,249.092596 99.9362365,249.902496 L99.2796114,252.764182 Z M175.999324,246.689926 L174.896659,243.968811 C178.249799,242.610686 181.585909,241.085499 184.813077,239.435962 L186.149305,242.050568 C182.846175,243.738762 179.43113,245.299903 175.999324,246.689926 Z M78.0551299,245.881107 C74.6433284,244.432422 71.2523421,242.813702 67.9759747,241.06982 L69.3557254,238.477922 C72.5564013,240.181525 75.8695333,241.76321 79.2026695,243.178374 L78.0551299,245.881107 Z M195.857031,236.540486 L194.297512,234.052663 C197.365457,232.129284 200.386906,230.046952 203.278868,227.863248 L205.048161,230.206446 C202.088887,232.441242 198.996612,234.571962 195.857031,236.540486 Z M58.3569166,235.397271 C55.2508553,233.377926 52.1931827,231.195573 49.2687814,228.910226 L51.0767307,226.596494 C53.9343611,228.829939 56.922019,230.962822 59.9572545,232.935941 L58.3569166,235.397271 Z M213.656194,223.098458 L211.690644,220.917998 C214.382564,218.490999 217.000144,215.917753 219.470125,213.269086 L221.617605,215.271671 C219.089504,217.981702 216.4111,220.615231 213.656194,223.098458 Z M40.77834,221.659776 C38.0658754,219.132215 35.4309947,216.455164 32.9474974,213.70242 L35.1274171,211.735789 C37.5544161,214.425546 40.1290137,217.041774 42.7798437,219.511755 L40.77834,221.659776 Z M228.871569,206.784473 L226.559189,204.975713 C228.793174,202.119704 230.927409,199.132857 232.90242,196.098163 L235.36321,197.699582 C233.342243,200.805102 231.157998,203.861964 228.871569,206.784473 Z M25.8354551,205.097901 C23.5979556,202.138357 21.4653432,199.046623 19.4970898,195.909204 L21.9841014,194.348874 C23.9074805,197.414386 25.991434,200.435295 28.1775713,203.326986 L25.8354551,205.097901 Z M241.040895,188.083497 L238.449537,186.702665 C240.155033,183.50253 241.73807,180.190479 243.154585,176.857884 L245.857048,178.006775 C244.406471,181.417766 242.786129,184.808211 241.040895,188.083497 Z M13.9829525,186.205263 C12.2934065,182.904025 10.7306441,179.490061 9.33764731,176.057445 L12.0584921,174.953428 C13.4190496,178.307109 14.9458585,181.642408 16.5964773,184.867143 L13.9829525,186.205263 Z M249.771388,167.544836 L246.978906,166.637888 C248.097521,163.194729 249.076646,159.658306 249.88925,156.12729 L252.750395,156.785537 C251.918598,160.400355 250.916224,164.020308 249.771388,167.544836 Z M5.59929039,165.537115 C4.51257445,161.993124 3.57048363,158.357221 2.7992397,154.730239 L5.67092714,154.119299 C6.42459979,157.662479 7.34479409,161.21431 8.40636959,164.676663 L5.59929039,165.537115 Z M254.774065,145.807273 L251.865884,145.402323 C252.364908,141.821567 252.712819,138.168634 252.899345,134.545166 L255.831856,134.696549 C255.640465,138.404359 255.284714,142.142716 254.774065,145.807273 Z M0.957229145,143.720617 C0.507134108,140.049031 0.212206969,136.305808 0.0810982049,132.593943 L3.01550158,132.490408 C3.14336642,136.11739 3.43153537,139.775459 3.87135797,143.363244 L0.957229145,143.720617 Z M252.992068,123.636376 C252.865825,120.016152 252.577926,116.356731 252.136211,112.760025 L255.05007,112.401842 C255.502327,116.08343 255.797254,119.828815 255.926471,123.533922 L252.992068,123.636376 Z M3.09822175,121.581347 L0.165980993,121.432667 C0.353858501,117.724857 0.706095037,113.98623 1.21322914,110.320591 L4.1216811,110.722838 C3.62617107,114.304676 3.28177402,117.95788 3.09822175,121.581347 Z M250.33529,101.999105 C249.581618,98.4545723 248.662505,94.900849 247.603092,91.4363337 L250.410982,90.577774 C251.495265,94.1236579 252.435734,97.7609124 253.206978,101.388705 L250.33529,101.999105 Z M6.08804224,99.9959789 L3.22608659,99.3404351 C4.05382893,95.7261584 5.05241816,92.1053939 6.19428089,88.5784329 L8.98757339,89.4826779 C7.87220275,92.928 6.89659134,96.4652334 6.08804224,99.9959789 Z M243.961782,81.1514593 C242.603658,77.7910201 241.081174,74.450585 239.436773,71.2234171 L242.053001,69.8904329 C243.736059,73.1932925 245.293956,76.6121225 246.683979,80.0514974 L243.961782,81.1514593 Z M12.8018923,79.2588976 L10.0986188,78.1127096 C11.5456811,74.6998268 13.1627793,71.3080296 14.9050391,68.0313918 L17.4974784,69.4095206 C15.7954974,72.6110074 14.215434,75.92468 12.8018923,79.2588976 Z M23.0351341,60.0083464 L20.5727223,58.4093601 C22.5912566,55.3011362 24.772528,52.2423823 27.0557128,49.317981 L29.3699852,51.124849 C27.1389736,53.9824794 25.0077128,56.9714889 23.0351341,60.0083464 Z M36.4509398,42.8244477 L34.3018374,40.8240253 C36.8277761,38.1104794 39.5037466,35.4742471 42.2551383,32.9893981 L44.2231214,35.1682365 C41.5344456,37.5968574 38.9192988,40.1725364 36.4509398,42.8244477 Z M52.6281394,28.2146061 L50.8564139,25.873301 C53.8143358,23.6349905 56.9047181,21.5010264 60.0415966,19.5306103 L61.603548,22.016811 C58.5380359,23.9420824 55.5184794,26.0273875 52.6281394,28.2146061 Z M196.121951,23.1154213 L195.961107,23.0116156 L197.558471,20.5475818 L197.713369,20.6481436 L196.121951,23.1154213 Z M186.553715,17.4882872 C183.351687,15.7919831 180.036393,14.2167856 176.700013,12.8062175 L177.843227,10.1021331 C181.258002,11.5454108 184.651151,13.1576431 187.928059,14.8939556 L186.553715,17.4882872 Z M71.0825766,16.6240507 L69.7436452,14.0110665 C73.0446125,12.319358 76.4583062,10.7549736 79.8890306,9.36116579 L80.9941288,12.0814699 C77.6426103,13.4431088 74.3075818,14.9715396 71.0825766,16.6240507 Z M166.475151,9.00081943 C163.027396,7.88598944 159.488811,6.91010771 155.957795,6.1004773 L156.61415,3.23879197 C160.228156,4.0673453 163.849732,5.06620486 167.378585,6.20698627 L166.475151,9.00081943 Z M91.2692714,8.42421119 L90.4071975,5.61740232 C93.9495671,4.52933474 97.5851996,3.58562196 101.212722,2.81194509 L101.825014,5.6833622 C98.2812925,6.43919747 94.7297318,7.36128405 91.2692714,8.42421119 Z M145.227151,4.1276283 C141.637474,3.62887434 137.983189,3.28231468 134.364857,3.09795143 L134.514348,0.165710665 C138.217293,0.354399155 141.957812,0.709068638 145.631561,1.219717 L145.227151,4.1276283 Z M112.580528,3.87919747 L112.221533,0.96479831 C115.891768,0.513081309 119.63499,0.216532207 123.347666,0.083531151 L123.452824,3.0176642 C119.82449,3.14769166 116.166691,3.43748258 112.580528,3.87919747 Z"
         id="path1180"
         fill="black"
         fill-rule="nonzero"
         fill-opacity="0.3" />
    </g>
  </g>
</svg>
