<?xml version="1.0" encoding="UTF-8"?>
<svg width="122.66" height="128" version="1.1" viewBox="0 0 47.538 124.72" xmlns="http://www.w3.org/2000/svg" xmlns:cc="http://creativecommons.org/ns#" xmlns:dc="http://purl.org/dc/elements/1.1/" xmlns:rdf="http://www.w3.org/1999/02/22-rdf-syntax-ns#">
<metadata>
<rdf:RDF>
<cc:Work rdf:about="">
<dc:format>image/svg+xml</dc:format>
<dc:type rdf:resource="http://purl.org/dc/dcmitype/StillImage"/>
<dc:title/>
</cc:Work>
</rdf:RDF>
</metadata>
<g transform="translate(249.71,-168.71)" fill-rule="evenodd" shape-rendering="auto">
<path d="m-223.39 168.78c-8.3481 1.9298-16.458 4.9063-24.708 7.2685-10.535 3.2529-21.11 6.3877-31.621 9.7149-4.9792 1.902-6.8355 7.7769-5.4454 12.605 2.0802 18.485 4.031 36.988 6.1921 55.462 1.303 5.4444 6.8955 7.7832 10.684 11.307 11.114 8.8229 22.157 17.741 33.316 26.503 4.1527 2.9327 9.3225 1.0649 13.115-1.5407 15.89-8.9998 31.886-17.824 47.71-26.935 5.2012-3.8798 3.681-10.786 4.4144-16.399 1.007-17.165 2.1383-34.326 3.0675-51.494 0.0141-5.2561-4.598-8.6267-9.2329-9.7664-14.884-5.4653-29.724-11.056-44.635-16.443-0.92999-0.23759-1.9022-0.34308-2.8564-0.28304z" color="#000000" color-rendering="auto" fill="#fff" image-rendering="auto" solid-color="#000000" style="isolation:auto;mix-blend-mode:normal;text-decoration-color:#000000;text-decoration-line:none;text-decoration-style:solid;text-indent:0;text-transform:none;white-space:normal"/>
<path transform="matrix(.97438 0 0 .97438 -285.7 168.71)" d="m64.627 2.377c-0.23705-0.0051166-0.4732-0.0010401-0.70898 0.013672-8.2435 1.9008-16.254 4.8348-24.4 7.1621-10.421 3.21-20.879 6.3027-31.275 9.5859-4.9159 1.8707-6.759 7.6664-5.3828 12.432 2.056 18.229 3.9831 36.476 6.1191 54.693 1.291 5.3727 6.8161 7.6744 10.559 11.148 10.986 8.7012 21.901 17.495 32.932 26.137 4.1046 2.8913 9.211 1.0525 12.961-1.5176 15.706-8.8755 31.518-17.578 47.158-26.562 5.1406-3.8234 3.6404-10.642 4.3652-16.182 0.99535-16.924 2.1127-33.845 3.0313-50.771 0.0118-5.1895-4.5488-8.5063-9.123-9.6289-14.712-5.3898-29.383-10.905-44.121-16.217-0.68943-0.17577-1.4021-0.27762-2.1133-0.29297zm0.39453 9.1855c2.9086 0.11222 5.3402 0.99152 5.9863 2.3262 0.86023 1.7767-1.7866 3.6892-5.8965 4.2676-4.1098 0.5788-8.1203-0.39307-8.9805-2.1699-0.86146-1.7791 1.7612-3.691 5.8711-4.2695 1.0275-0.14454 2.05-0.1917 3.0195-0.1543zm-26.246 7.4316c3.0765 0.12997 5.6441 1.1306 6.3281 2.6406 0.91073 2.0114-1.891 4.1817-6.2422 4.8359-4.3513 0.65432-8.6127-0.45534-9.5234-2.4668-0.91203-2.0141 1.891-4.1817 6.2422-4.8359 1.0878-0.16357 2.1698-0.21715 3.1953-0.17383zm46.521 1.0645c1.0838-0.039211 2.2269 0.012693 3.375 0.16992 4.5926 0.62937 7.5233 2.7055 6.5625 4.6387-0.96251 1.9358-5.4485 2.9981-10.041 2.3691-4.5927-0.62935-7.55-2.7282-6.5879-4.6641 0.72097-1.4499 3.4399-2.396 6.6914-2.5137zm-22.578 0.29883c3.5868 0.12369 6.5776 1.0826 7.375 2.5352 1.0623 1.9332-2.1784 4.0097-7.2539 4.6387-5.0754 0.62936-10.063-0.43621-11.125-2.3691-1.0636-1.9358 2.202-4.0077 7.2773-4.6367 1.2688-0.15734 2.531-0.2092 3.7266-0.16797zm-1.9004 9.7891c3.7041 0.13286 6.7998 1.1694 7.623 2.7383 1.0952 2.0896-2.2638 4.3282-7.5 5.0078-5.2363 0.6796-10.378-0.45113-11.473-2.541-1.0976-2.0924 2.2638-4.3536 7.5-5.0332 1.309-0.16918 2.6149-0.21595 3.8496-0.17188zm-43.986 9.0156c1.8501 0.11343 4.0768 2.0972 5.6484 5.2539 2.0963 4.2091 2.2093 8.9376 0.24805 10.535-1.9583 1.596-5.2324-0.5278-7.3281-4.7363-2.0963-4.2089-2.2049-8.9142-0.24609-10.51 0.49001-0.39927 1.0609-0.58186 1.6777-0.54297zm86.568 4.5996c0.62544-0.010006 1.2312 0.099421 1.7871 0.36914 2.9609 1.4269 3.5276 6.3802 1.2812 11.053-2.2466 4.6727-6.4628 7.2979-9.4238 5.8711-2.965-1.4288-3.5531-6.3548-1.3066-11.027 1.6849-3.5046 4.4875-5.8605 7.0312-6.2168 0.2119-0.028359 0.42238-0.045493 0.63086-0.048828zm-65.869 7.168c2.0092 0.12638 4.461 2.2209 6.168 5.5508 2.2757 4.4397 2.4007 9.3928 0.27148 11.078-2.1267 1.6835-5.7182-0.54403-7.9941-4.9844-2.2753-4.4399-2.3978-9.4185-0.27148-11.102 0.53149-0.42194 1.1563-0.58445 1.8262-0.54297zm39.076 4.0078c0.62546-0.010004 1.2312 0.099414 1.7871 0.36914 2.961 1.4269 3.5296 6.3802 1.2832 11.053-2.2466 4.6727-6.4647 7.2999-9.4258 5.873-2.965-1.4289-3.5277-6.3569-1.2812-11.029 1.6849-3.5046 4.4619-5.8605 7.0059-6.2168 0.21188-0.028357 0.42237-0.045493 0.63086-0.048828zm-57.309 2.1348c1.6909 0.1264 3.745 2.139 5.1816 5.3535 1.9158 4.2859 2.0147 9.0815 0.22266 10.709-1.7899 1.6251-4.7954-0.52598-6.7109-4.8125-1.916-4.2859-2.0123-9.0817-0.22266-10.707 0.44852-0.40705 0.96608-0.58316 1.5293-0.54297zm19.49 13.248v0.001954c2.0092 0.1264 4.4355 2.2209 6.1426 5.5508 2.2757 4.4397 2.4007 9.391 0.27148 11.076-2.1267 1.6835-5.6909-0.54392-7.9668-4.9844-2.2753-4.4398-2.3999-9.4164-0.27344-11.1 0.53149-0.42194 1.1563-0.58642 1.8262-0.54492zm64.02 4.1367c0.62548-0.002756 1.2292 0.12133 1.7852 0.39062 2.9609 1.4269 3.5296 6.3548 1.2832 11.027-2.2466 4.6727-6.4627 7.3232-9.4238 5.8965-2.965-1.4288-3.553-6.3803-1.3066-11.053 1.685-3.5046 4.4874-5.8604 7.0312-6.2168 0.2119-0.028357 0.42237-0.044003 0.63086-0.044922zm-81.312 0.79883c1.585 0.10109 3.5129 1.8349 4.8594 4.5879 1.7959 3.6704 1.8775 7.7842 0.19726 9.1777-1.6777 1.3918-4.4955-0.449-6.291-4.1191-1.7949-3.6702-1.8753-7.7862-0.19727-9.1777 0.42067-0.34872 0.9027-0.5031 1.4316-0.46875zm55.408 11.412c0.62546-0.002756 1.2312 0.12134 1.7871 0.39062 2.9609 1.4268 3.553 6.3802 1.3066 11.053-2.2466 4.6727-6.4881 7.2979-9.4492 5.8711-2.965-1.4288-3.5296-6.3783-1.2832-11.051 1.685-3.5047 4.4639-5.8624 7.0078-6.2188 0.21188-0.028354 0.42237-0.044004 0.63086-0.044922zm-36.93 2.1309c2.0092 0.12639 4.4591 2.221 6.166 5.5508 2.2757 4.4397 2.3779 9.3929 0.24805 11.078-2.1266 1.6836-5.6928-0.54414-7.9688-4.9844-2.2753-4.44-2.3978-9.3931-0.27148-11.076 0.53216-0.42195 1.1545-0.60789 1.8242-0.56641l0.001953-0.001953z" stroke-width="1.0263" style="isolation:auto;mix-blend-mode:normal;text-decoration-color:#000000;text-decoration-line:none;text-decoration-style:solid;text-indent:0;text-transform:none;white-space:normal"/>
</g>
</svg>
